<?xml version="1.0" encoding="UTF-8"?>
<svg xmlns="http://www.w3.org/2000/svg" xmlns:xlink="http://www.w3.org/1999/xlink" width="1296pt" height="1727.999927pt" viewBox="0 0 1296 1727.999927" version="1.2">
<defs>
<clipPath id="clip1">
  <path d="M 187.015625 420.992188 L 1108.765625 420.992188 L 1108.765625 1306.957031 L 187.015625 1306.957031 Z M 187.015625 420.992188 "/>
</clipPath>
</defs>
<g id="surface1">
<rect x="0" y="0" width="1296" height="1727.999927" style="fill:rgb(100%,100%,100%);fill-opacity:1;stroke:none;"/>
<rect x="0" y="0" width="1296" height="1727.999927" style="fill:rgb(100%,100%,100%);fill-opacity:1;stroke:none;"/>
<rect x="0" y="0" width="1296" height="1727.999927" style="fill:rgb(100%,100%,100%);fill-opacity:1;stroke:none;"/>
<path style=" stroke:none;fill-rule:nonzero;fill:rgb(100%,78.819275%,87.059021%);fill-opacity:1;" d="M 231.671875 796.347656 C 229.539062 796.347656 227.855469 798.035156 227.855469 800.113281 L 227.855469 962.222656 C 227.855469 964.304688 229.539062 965.988281 231.671875 965.988281 L 274.027344 965.988281 C 276.105469 965.988281 277.789062 964.304688 277.789062 962.222656 L 277.789062 800.113281 C 277.789062 798.035156 276.105469 796.347656 274.027344 796.347656 L 231.671875 796.347656 "/>
<path style=" stroke:none;fill-rule:nonzero;fill:rgb(100%,87.059021%,34.899902%);fill-opacity:1;" d="M 685.144531 496.964844 C 685.144531 477.632812 669.417969 461.84375 650.039062 461.84375 C 630.714844 461.84375 614.988281 477.632812 614.988281 496.964844 C 614.988281 516.351562 630.714844 532.082031 650.039062 532.082031 C 669.417969 532.082031 685.144531 516.351562 685.144531 496.964844 "/>
<path style=" stroke:none;fill-rule:nonzero;fill:rgb(43.139648%,70.979309%,100%);fill-opacity:1;" d="M 796.25 855.460938 C 788.613281 819.835938 742.664062 819.894531 735.082031 855.460938 C 729.578125 881.195312 690.199219 870.238281 695.648438 844.5625 C 711.601562 769.996094 819.675781 769.996094 835.628906 844.5625 C 841.132812 870.296875 801.699219 881.140625 796.25 855.460938 Z M 749.179688 1036.003906 C 684.414062 1060.894531 615.71875 1060.894531 550.894531 1036.003906 C 526.574219 1026.675781 537.191406 987.171875 561.738281 996.613281 C 620.660156 1019.203125 679.414062 1019.203125 738.339844 996.613281 C 762.941406 987.171875 773.503906 1026.675781 749.179688 1036.003906 Z M 503.878906 855.460938 C 498.375 881.195312 459 870.238281 464.503906 844.5625 C 480.398438 769.996094 588.472656 769.996094 604.425781 844.5625 C 609.929688 870.296875 570.5 881.140625 565.050781 855.460938 C 557.410156 819.835938 511.464844 819.894531 503.878906 855.460938 Z M 919.4375 649.578125 L 376.484375 649.578125 C 344.578125 649.578125 318.625 675.539062 318.625 707.453125 L 318.625 1072.976562 C 318.625 1104.894531 344.632812 1130.910156 376.59375 1130.910156 L 780.972656 1130.910156 L 786.703125 1135.910156 C 790.242188 1138.945312 793.21875 1142.429688 795.523438 1146.136719 L 868.601562 1264.027344 L 868.601562 1170.523438 C 868.601562 1148.664062 886.351562 1130.910156 908.203125 1130.910156 L 919.4375 1130.910156 C 951.398438 1130.910156 977.347656 1104.894531 977.347656 1072.976562 L 977.347656 707.511719 C 977.347656 675.539062 951.398438 649.578125 919.4375 649.578125 "/>
<path style=" stroke:none;fill-rule:nonzero;fill:rgb(100%,78.819275%,87.059021%);fill-opacity:1;" d="M 1022.003906 796.347656 C 1019.925781 796.347656 1018.242188 798.035156 1018.242188 800.113281 L 1018.242188 962.222656 C 1018.242188 964.304688 1019.925781 965.988281 1022.003906 965.988281 L 1064.359375 965.988281 C 1066.4375 965.988281 1068.121094 964.304688 1068.121094 962.222656 L 1068.121094 800.113281 C 1068.121094 798.035156 1066.4375 796.347656 1064.359375 796.347656 L 1022.003906 796.347656 "/>
<path style=" stroke:none;fill-rule:nonzero;fill:rgb(76.858521%,98.039246%,97.24884%);fill-opacity:1;" d="M 738.339844 996.613281 C 679.414062 1019.203125 620.660156 1019.203125 561.738281 996.613281 C 537.191406 987.171875 526.574219 1026.675781 550.894531 1036.003906 C 615.71875 1060.894531 684.414062 1060.894531 749.179688 1036.003906 C 773.503906 1026.675781 762.941406 987.171875 738.339844 996.613281 "/>
<path style=" stroke:none;fill-rule:nonzero;fill:rgb(76.858521%,98.039246%,97.24884%);fill-opacity:1;" d="M 565.050781 855.460938 C 570.5 881.140625 609.929688 870.296875 604.425781 844.5625 C 588.472656 769.996094 480.398438 769.996094 464.503906 844.5625 C 459 870.238281 498.375 881.195312 503.878906 855.460938 C 511.464844 819.894531 557.410156 819.835938 565.050781 855.460938 "/>
<g clip-path="url(#clip1)" clip-rule="nonzero">
<path style=" stroke:none;fill-rule:nonzero;fill:rgb(76.858521%,98.039246%,97.24884%);fill-opacity:1;" d="M 1068.121094 962.222656 C 1068.121094 964.304688 1066.4375 965.988281 1064.359375 965.988281 L 1022.003906 965.988281 C 1019.925781 965.988281 1018.242188 964.304688 1018.242188 962.222656 L 1018.242188 800.113281 C 1018.242188 798.035156 1019.925781 796.347656 1022.003906 796.347656 L 1064.359375 796.347656 C 1066.4375 796.347656 1068.121094 798.035156 1068.121094 800.113281 Z M 977.347656 800.113281 L 977.347656 1072.976562 C 977.347656 1104.894531 951.398438 1130.910156 919.4375 1130.910156 L 908.203125 1130.910156 C 886.351562 1130.910156 868.601562 1148.664062 868.601562 1170.523438 L 868.601562 1264.027344 L 795.523438 1146.136719 C 793.21875 1142.429688 790.242188 1138.945312 786.703125 1135.910156 L 780.972656 1130.910156 L 376.59375 1130.910156 C 344.632812 1130.910156 318.625 1104.894531 318.625 1072.976562 L 318.625 707.453125 C 318.625 675.539062 344.578125 649.578125 376.484375 649.578125 L 919.4375 649.578125 C 951.398438 649.578125 977.347656 675.539062 977.347656 707.511719 Z M 614.988281 496.964844 C 614.988281 477.632812 630.714844 461.84375 650.039062 461.84375 C 669.417969 461.84375 685.144531 477.632812 685.144531 496.964844 C 685.144531 516.351562 669.417969 532.082031 650.039062 532.082031 C 630.714844 532.082031 614.988281 516.351562 614.988281 496.964844 Z M 277.789062 962.222656 C 277.789062 964.304688 276.105469 965.988281 274.027344 965.988281 L 231.671875 965.988281 C 229.539062 965.988281 227.855469 964.304688 227.855469 962.222656 L 227.855469 800.113281 C 227.855469 798.035156 229.539062 796.347656 231.671875 796.347656 L 274.027344 796.347656 C 276.105469 796.347656 277.789062 798.035156 277.789062 800.113281 Z M 1064.359375 755.441406 L 1022.003906 755.441406 C 1020.710938 755.441406 1019.476562 755.554688 1018.242188 755.667969 L 1018.242188 707.511719 C 1018.242188 653.007812 973.921875 608.671875 919.4375 608.671875 L 670.484375 608.671875 L 670.484375 570.066406 C 702.445312 561.132812 725.980469 531.746094 725.980469 496.964844 C 725.980469 455.101562 691.941406 420.992188 650.039062 420.992188 C 608.191406 420.992188 574.09375 455.101562 574.09375 496.964844 C 574.09375 531.746094 597.628906 561.132812 629.648438 570.066406 L 629.648438 608.671875 L 376.484375 608.671875 C 322.054688 608.671875 277.789062 653.007812 277.789062 707.453125 L 277.789062 755.667969 C 276.554688 755.554688 275.261719 755.441406 274.027344 755.441406 L 231.671875 755.441406 C 207.070312 755.441406 187.015625 775.503906 187.015625 800.113281 L 187.015625 962.222656 C 187.015625 986.835938 207.070312 1006.894531 231.671875 1006.894531 L 274.027344 1006.894531 C 275.261719 1006.894531 276.554688 1006.785156 277.789062 1006.671875 L 277.789062 1072.976562 C 277.789062 1127.425781 322.109375 1171.761719 376.59375 1171.761719 L 763.335938 1171.761719 L 834.28125 1286.164062 C 841.46875 1299.257812 854.726562 1306.957031 869.273438 1306.957031 C 871.296875 1306.957031 873.320312 1306.785156 875.398438 1306.507812 C 892.53125 1303.976562 905.785156 1291.335938 909.101562 1274.363281 L 909.492188 1171.761719 L 919.4375 1171.761719 C 973.921875 1171.761719 1018.242188 1127.425781 1018.242188 1072.976562 L 1018.242188 1006.671875 C 1019.476562 1006.785156 1020.710938 1006.894531 1022.003906 1006.894531 L 1064.359375 1006.894531 C 1088.960938 1006.894531 1109.015625 986.835938 1109.015625 962.222656 L 1109.015625 800.113281 C 1109.015625 775.503906 1088.960938 755.441406 1064.359375 755.441406 "/>
</g>
<path style=" stroke:none;fill-rule:nonzero;fill:rgb(76.858521%,98.039246%,97.24884%);fill-opacity:1;" d="M 695.648438 844.5625 C 690.199219 870.238281 729.578125 881.195312 735.082031 855.460938 C 742.664062 819.894531 788.613281 819.835938 796.25 855.460938 C 801.699219 881.140625 841.132812 870.296875 835.628906 844.5625 C 819.675781 769.996094 711.601562 769.996094 695.648438 844.5625 "/>
</g>
</svg>
